<svg width="80" height="80" viewBox="0 0 80 80" fill="none" xmlns="http://www.w3.org/2000/svg">
<path fill-rule="evenodd" clip-rule="evenodd" d="M35 26.7153V53.0287L51.07 39.992L35 26.7153ZM34.8534 60.002C33.83 60.002 32.7967 59.782 31.8334 59.3287C29.6734 58.312 28.3334 56.2853 28.3334 54.042V25.9553C28.3334 23.7153 29.6734 21.6887 31.8334 20.672C34.2734 19.522 37.1667 19.8553 39.1967 21.532L56.1934 35.5787C57.5567 36.6987 58.3334 38.312 58.3334 39.9987C58.3334 41.6853 57.5567 43.302 56.1934 44.422L39.1967 58.462C37.97 59.4787 36.4234 60.002 34.8534 60.002V60.002Z" fill="#231F20"/>
<mask id="mask0_1_168" style="mask-type:luminance" maskUnits="userSpaceOnUse" x="28" y="19" width="31" height="42">
<path fill-rule="evenodd" clip-rule="evenodd" d="M35 26.7153V53.0287L51.07 39.992L35 26.7153ZM34.8534 60.002C33.83 60.002 32.7967 59.782 31.8334 59.3287C29.6734 58.312 28.3334 56.2853 28.3334 54.042V25.9553C28.3334 23.7153 29.6734 21.6887 31.8334 20.672C34.2734 19.522 37.1667 19.8553 39.1967 21.532L56.1934 35.5787C57.5567 36.6987 58.3334 38.312 58.3334 39.9987C58.3334 41.6853 57.5567 43.302 56.1934 44.422L39.1967 58.462C37.97 59.4787 36.4234 60.002 34.8534 60.002V60.002Z" fill="white"/>
</mask>
<g mask="url(#mask0_1_168)">
<rect width="80" height="80" fill="white"/>
</g>
<path d="M34.829 27.7249C34.9502 28.876 35.8892 29.8117 36.2613 30.8995C36.8245 32.5456 37.7807 33.7529 38.5352 35.2996C38.9484 36.1466 39.5348 38.8522 39.6131 37.9131C39.8123 35.5221 38.8794 33.1106 38.3433 30.8256C38.2099 30.2573 37.5151 27.0152 37.4868 27.1638C37.0253 29.5867 36.9553 32.0589 36.9553 34.517C36.9553 36.6679 36.9553 38.8188 36.9553 40.9696C36.9553 42.3443 36.0135 38.8016 35.966 38.6662C35.5334 37.4326 34.9769 36.24 34.5928 34.9895C34.3827 34.3055 34.1571 32.1616 34.2975 32.8633C34.7809 35.2803 34.6975 37.8588 35.0948 40.3052C35.2516 41.2703 35.8922 42.3126 35.8922 43.2731C35.8922 43.8107 35.5185 43.479 35.3606 43.8342C35.0864 44.4512 34.2884 46.3277 35.0948 46.8021C36.0265 47.3501 37.8045 45.2172 37.7526 46.9792C37.7175 48.1736 36.7696 47.9851 36.2908 48.7511C36.214 48.8741 36.0014 49.9613 36.2761 49.9324C37.1724 49.838 38.5745 48.2074 39.3473 47.7175C41.4738 46.3698 43.5898 45.0085 45.0469 42.8892C45.7564 41.8571 46.2385 40.7219 46.9221 39.6703C47.7669 38.3705 48.788 37.5831 47.055 37.0272C46.4966 36.8481 42.7559 35.6112 42.4186 36.1413C41.5718 37.4718 42.0051 40.0085 42.0051 41.4864C42.0051 42.1587 41.9327 41.4196 42.2709 41.2206C42.6807 40.9796 42.8751 40.6354 43.334 40.4824" stroke="white" stroke-width="3" stroke-linecap="round"/>
<path d="M43.0822 31.3016C43.1744 33.2373 43.3574 34.5197 42.3877 36.265C42.0415 36.8883 40.3951 30.142 40.1409 35.162C39.9031 39.8591 39.7556 44.4652 38.9971 49.0922C38.7438 50.6375 36.9572 51.9996 35.5554 52.35C35.0155 52.485 34.4544 52.4419 33.901 52.4419C33.2403 52.4419 33.3113 52.7563 33.9112 52.5849C34.8929 52.3044 35.9689 51.2705 36.7912 50.7058C38.397 49.6029 39.9803 48.3612 41.295 46.9169C42.3245 45.7858 43.1334 44.4787 44.1443 43.3322C44.667 42.7394 45.3296 42.2328 45.7988 41.596C45.9927 41.3328 46.187 40.3308 46.575 40.3092C47.5767 40.2536 48.3548 40.1586 49.3324 39.8598C49.4571 39.8218 51.3341 39.1877 51.3341 39.4922C51.3341 39.8123 50.6652 39.9416 50.4354 39.9416" stroke="white" stroke-width="3" stroke-linecap="round"/>
<path d="M39.4141 31.558C39.7405 31.558 40.6081 30.913 40.7566 31.2472C41.2473 32.3512 41.6516 33.223 41.6516 34.4791C41.6516 36.2674 41.6584 38.8532 40.8436 40.4829C40.5175 41.135 39.879 41.6918 39.5136 42.3474C39.1966 42.9161 39.1064 43.6993 38.631 44.1746C38.4119 44.3937 38.0491 45.1708 37.8479 45.2063C37.4704 45.273 37.4492 45.8716 37.1767 45.9397C37.0108 45.9812 36.5079 44.5044 36.4557 44.3114C35.9743 42.5299 36.8756 41.6048 38.0219 40.284C39.4038 38.6919 40.7538 39.0781 42.7206 38.8918C43.8104 38.7885 45.2282 38.0103 46.0146 38.9539C46.8887 40.0028 43.9632 42.9122 43.4788 43.5904C42.7845 44.5625 42.7806 43.2463 42.7206 42.6457C42.5608 41.0481 42.4909 39.6444 43.2053 38.1708C43.8754 36.7889 44.1437 35.3697 45.1072 34.131C45.6932 33.3776 45.882 33.705 46.3378 34.5785C47.1393 36.1148 46.9513 38.4897 46.3502 40.0354C45.5752 42.0283 43.614 43.3688 41.664 44.1C41.3626 44.2131 39.4679 45.912 39.4639 45.9024C38.781 44.2805 41.8015 41.1398 43.0438 40.5574C44.6068 39.8248 46.1768 39.7761 47.8667 39.8365C48.5494 39.8609 48.606 41.163 48.5876 41.6762C48.5482 42.7814 47.4666 43.8442 47.0214 44.8459C46.8822 45.1592 46.9713 43.7098 47.0711 43.4661C47.3688 42.7399 47.8629 42.1 48.2396 41.4151C48.3575 41.2008 48.8461 40.2797 49.2091 40.3834C49.4014 40.4383 49.0089 40.7335 48.8735 40.8806C48.3486 41.4512 47.7808 41.9858 47.2327 42.5338C46.2183 43.5483 45.1587 44.3348 44.0382 45.2063C43.6047 45.5435 43.3379 45.8239 44.0257 45.4052C44.8292 44.9161 47.2745 42.9446 47.3695 41.8999C47.3935 41.6352 46.7996 41.7299 46.6858 41.4897C46.3294 40.7373 46.0746 39.9514 45.679 39.215C44.6979 37.3892 43.9265 35.4352 43.0438 33.5716C42.4245 32.2643 41.8917 32.738 41.0301 33.7954C38.8842 36.4289 38.8098 40.2362 39.8119 43.2424C40.1488 44.2531 39.2393 43.5725 38.7926 43.1429C38.2548 42.6258 37.9376 41.8058 37.6242 41.1789" stroke="white" stroke-width="3" stroke-linecap="round"/>
</svg>
