<svg width="30" height="30" viewBox="0 0 30 30" fill="none" xmlns="http://www.w3.org/2000/svg">
<path fill-rule="evenodd" clip-rule="evenodd" d="M19.375 19.9818L13.3475 15.003L19.375 10.1143V19.9818ZM20.5625 7.75176C19.645 7.32051 18.5613 7.44801 17.8013 8.07676L11.4263 13.3418C11.36 13.3968 11.3087 13.4618 11.25 13.523V8.75051C11.25 8.05926 10.69 7.50051 10 7.50051C9.31 7.50051 8.75 8.05926 8.75 8.75051V21.2505C8.75 21.9405 9.31 22.5005 10 22.5005C10.69 22.5005 11.25 21.9405 11.25 21.2505V16.4768C11.3087 16.538 11.36 16.603 11.4275 16.658L17.8013 21.9255C18.2613 22.3043 18.8412 22.5018 19.43 22.5018C19.8137 22.5018 20.2012 22.418 20.5625 22.248C21.3725 21.8668 21.875 21.1068 21.875 20.2668V9.73426C21.875 8.89301 21.3725 8.13301 20.5625 7.75176V7.75176Z" fill="#231F20"/>
<mask id="mask0_227_5430" style="mask-type:luminance" maskUnits="userSpaceOnUse" x="8" y="7" width="14" height="16">
<path fill-rule="evenodd" clip-rule="evenodd" d="M19.375 19.9818L13.3475 15.003L19.375 10.1143V19.9818ZM20.5625 7.75176C19.645 7.32051 18.5613 7.44801 17.8013 8.07676L11.4263 13.3418C11.36 13.3968 11.3087 13.4618 11.25 13.523V8.75051C11.25 8.05926 10.69 7.50051 10 7.50051C9.31 7.50051 8.75 8.05926 8.75 8.75051V21.2505C8.75 21.9405 9.31 22.5005 10 22.5005C10.69 22.5005 11.25 21.9405 11.25 21.2505V16.4768C11.3087 16.538 11.36 16.603 11.4275 16.658L17.8013 21.9255C18.2613 22.3043 18.8412 22.5018 19.43 22.5018C19.8137 22.5018 20.2012 22.418 20.5625 22.248C21.3725 21.8668 21.875 21.1068 21.875 20.2668V9.73426C21.875 8.89301 21.3725 8.13301 20.5625 7.75176V7.75176Z" fill="white"/>
</mask>
<g mask="url(#mask0_227_5430)">
<rect width="30" height="30" fill="#34547A"/>
</g>
<path d="M18.9983 11.4706C18.5435 11.4706 17.9465 12.155 17.5273 12.3703C17.1878 12.5446 16.8927 12.7491 16.5633 12.9344C16.2132 13.1313 16.3138 13.1335 16.4205 12.8844C16.4505 12.8145 16.7292 12.4384 16.6276 12.3989C16.3209 12.2796 15.4544 12.8615 15.1709 12.9844C14.3995 13.3187 14.7309 13.5695 14.314 14.1055C13.219 15.5133 16.999 17.4961 18.1271 16.3262C18.7386 15.6921 19.2027 14.1698 18.0343 14.1698C17.7787 14.1698 16.7576 13.8045 16.5847 14.0984C16.346 14.5041 16.4276 15.0199 16.4276 15.4694C16.4276 16.4278 16.8802 18.1339 17.8415 18.6398C18.4381 18.9538 19.3839 19.7797 19.3839 18.6684" stroke="#34547A" stroke-width="3" stroke-linecap="round"/>
<path d="M18.6128 10.5883C18.6128 12.1611 18.9169 13.5585 19.3917 15.0578C19.4775 15.3289 19.9253 16.9791 19.4937 17.1024C19.0647 17.225 19.1097 17.7654 18.5293 17.7654" stroke="#34547A" stroke-width="3" stroke-linecap="round"/>
</svg>
