<svg width="30" height="30" viewBox="0 0 30 30" fill="none" xmlns="http://www.w3.org/2000/svg">
<path fill-rule="evenodd" clip-rule="evenodd" d="M10.625 19.8853V10.0178L16.6525 14.9978L10.625 19.8853ZM20 7.50028C19.31 7.50028 18.75 8.05903 18.75 8.75028V13.5228C18.6913 13.4615 18.64 13.3978 18.5725 13.3428L12.1988 8.07528C11.4375 7.44778 10.3525 7.32028 9.4375 7.75153C8.6275 8.13403 8.125 8.89278 8.125 9.73403V20.2665C8.125 21.1078 8.6275 21.8665 9.4375 22.249C9.79875 22.4178 10.1862 22.5015 10.57 22.5015C11.1587 22.5015 11.7388 22.3053 12.1988 21.924L18.5738 16.6578C18.64 16.6028 18.6913 16.5378 18.75 16.4765V21.2503C18.75 21.9415 19.31 22.5003 20 22.5003C20.69 22.5003 21.25 21.9415 21.25 21.2503V8.75028C21.25 8.05903 20.69 7.50028 20 7.50028V7.50028Z" fill="#231F20"/>
<mask id="mask0_227_5417" style="mask-type:luminance" maskUnits="userSpaceOnUse" x="8" y="7" width="14" height="16">
<path fill-rule="evenodd" clip-rule="evenodd" d="M10.625 19.8853V10.0178L16.6525 14.9978L10.625 19.8853ZM20 7.50028C19.31 7.50028 18.75 8.05903 18.75 8.75028V13.5228C18.6913 13.4615 18.64 13.3978 18.5725 13.3428L12.1988 8.07528C11.4375 7.44778 10.3525 7.32028 9.4375 7.75153C8.6275 8.13403 8.125 8.89278 8.125 9.73403V20.2665C8.125 21.1078 8.6275 21.8665 9.4375 22.249C9.79875 22.4178 10.1862 22.5015 10.57 22.5015C11.1587 22.5015 11.7388 22.3053 12.1988 21.924L18.5738 16.6578C18.64 16.6028 18.6913 16.5378 18.75 16.4765V21.2503C18.75 21.9415 19.31 22.5003 20 22.5003C20.69 22.5003 21.25 21.9415 21.25 21.2503V8.75028C21.25 8.05903 20.69 7.50028 20 7.50028V7.50028Z" fill="white"/>
</mask>
<g mask="url(#mask0_227_5417)">
<rect width="30" height="30" fill="#34547A"/>
</g>
<path d="M12.4458 15.0323C12.4458 15.5325 12.098 15.4735 11.7438 15.6253C11.7098 15.6399 11.9338 14.5447 11.9557 14.4211C12.0227 14.0412 12.3318 13.2988 12.2219 12.9142C12.1846 12.7836 11.9846 12.9179 11.9254 12.8053C11.8212 12.6073 11.6068 12.1985 11.5744 11.9823C11.5472 11.801 11.033 10.9794 11.2476 11.002C11.6045 11.0396 11.9531 11.6851 12.1735 11.9218C12.4621 12.2318 12.7314 12.5207 12.9904 12.8537C13.3942 13.3728 14.1056 13.8341 14.7877 13.8341C15.1954 13.8341 15.2779 13.8307 15.2779 14.2698C15.2779 14.865 14.639 14.9402 14.1886 15.1654C13.9514 15.284 13.7139 15.3263 13.4746 15.4316C13.0366 15.6244 12.7098 16.0384 12.2945 16.2788C11.8728 16.523 11.8372 17.3008 11.526 17.7009C11.2818 18.0148 11.2882 18.1126 10.9209 18.2758C10.5971 18.4197 11.3899 18.1391 11.5139 18.0822C12.1892 17.7719 13.1171 17.8937 13.6985 17.4286C14.3308 16.9227 13.408 17.2804 13.0994 17.4347C12.4184 17.7752 11.9138 17.8634 11.5502 18.5179C11.3984 18.7911 11.0227 18.9678 10.9209 19.1714" stroke="#34547A" stroke-width="3" stroke-linecap="round"/>
<path d="M10.4812 13.3465C10.4812 13.9686 10.4187 14.3298 11.0505 14.6006C11.9795 14.9987 12.8671 14.942 13.0817 13.762C13.156 13.3529 13.4177 11.6108 12.697 12.1771C11.7756 12.901 12.6663 14.4037 13.2355 15.0391C13.816 15.687 16.2113 17.5755 16.767 15.9085C17.2333 14.5096 14.345 12.1087 13.2048 13.5158C12.7061 14.1312 12.8351 15.1264 13.7356 14.993C14.4531 14.8867 15.3952 13.1947 14.4204 12.8234C12.4301 12.0651 11.3251 15.6356 12.697 15.8316C12.9883 15.8732 12.9798 15.6519 13.0432 15.4238C13.0846 15.2746 13.4058 15.0084 13.2509 15.0084C12.4744 15.0084 11.6923 15.7601 11.5968 16.524C11.5343 17.0237 12.4886 16.8087 12.8047 16.8087C13.6137 16.8087 12.6668 16.7258 12.52 17.078C12.3102 17.5815 14.5912 16.9742 14.1434 17.2857C14.0199 17.3716 12.9482 17.791 13.5279 17.5011" stroke="#34547A" stroke-width="3" stroke-linecap="round"/>
</svg>
